<?xml version="1.0" encoding="utf-8"?>
<!-- Generator: Adobe Illustrator 24.1.3, SVG Export Plug-In . SVG Version: 6.00 Build 0)  -->
<svg version="1.1" id="Layer_1" xmlns="http://www.w3.org/2000/svg" xmlns:xlink="http://www.w3.org/1999/xlink" x="0px" y="0px"
	 viewBox="0 0 1366 768" style="enable-background:new 0 0 1366 768;" xml:space="preserve">
<style type="text/css">
	.st0{fill:#9E005D;}
	.st1{fill:#FFFFFF;}
	.st2{fill:#1B1464;}
	.st3{opacity:0.18;}
	.st4{fill:none;stroke:#FFFFFF;stroke-width:10;stroke-miterlimit:10;}
</style>
<g>
	<rect x="10" y="10" class="st0" width="1346" height="748"/>
	<path class="st1" d="M1346,20v728H20V20H1346 M1366,0H0v768h1366V0L1366,0z"/>
</g>
<g>
	<g>
		<ellipse class="st2" cx="570.3" cy="280" rx="153" ry="153.5"/>
	</g>
	<g>
		<ellipse class="st2" cx="796.3" cy="488" rx="153" ry="153.5"/>
	</g>
	<g class="st3">
		<ellipse class="st1" cx="796.3" cy="280" rx="153" ry="153.5"/>
	</g>
	<g class="st3">
		<ellipse class="st1" cx="570.3" cy="488" rx="153" ry="153.5"/>
	</g>
	<path class="st4" d="M683.3,176.5c-53.5,69.1-53.2,138.4,0,208C732.9,323.7,740.4,255.6,683.3,176.5z"/>
	<path class="st4" d="M457.8,384c75.1-66.3,150.2-65.9,225.5,0.5C613.2,447.6,538.4,452.3,457.8,384z"/>
	<path class="st4" d="M683.3,384.5c53.3,69,53.3,138,0,207C633.2,523.5,626.7,454.7,683.3,384.5z"/>
	<path class="st4" d="M908.3,384.5c-81,65.3-156.1,65.3-225,0C758.9,317.8,834,317.8,908.3,384.5z"/>
	<path class="st4" d="M900.3,167.5c-104,65-123,153-217,217"/>
	<path class="st4" d="M1046.9,20c-86.7,11-135.5,60.3-147.1,147.1C977.9,159.1,1031.4,116.4,1046.9,20z"/>
	<path class="st4" d="M465.9,166.5c104,65,123,153,217,217"/>
	<path class="st4" d="M319.2,19.1c86.7,11,135.5,60.3,147.1,147.1C388.2,158.2,334.8,115.4,319.2,19.1z"/>
	<path class="st4" d="M899.9,601.5c-104-65-123-153-217-217"/>
	<path class="st4" d="M1046.5,748.9c-86.7-11-135.5-60.3-147.1-147.1C977.5,609.8,1031,652.6,1046.5,748.9z"/>
	<path class="st4" d="M465.7,600.5c104-65,123-153,217-217"/>
	<path class="st4" d="M319.1,747.9c86.7-11,135.5-60.3,147.1-147.1C388.1,608.8,334.6,651.6,319.1,747.9z"/>
</g>
<path class="st4" d="M1047,749c-242.8-49.3-485.5-49.4-728,0c49.3-241.5,49.4-484.8,0-730c242.5,49.4,485.2,49.3,728,0
	C997.7,262.3,997.7,505.7,1047,749z"/>
<g>
	<circle class="st1" cx="393" cy="93" r="27"/>
	<path class="st1" d="M393,76c9.4,0,17,7.6,17,17s-7.6,17-17,17s-17-7.6-17-17S383.6,76,393,76 M393,56c-20.4,0-37,16.6-37,37
		s16.6,37,37,37s37-16.6,37-37S413.4,56,393,56L393,56z"/>
</g>
<g>
	<circle class="st1" cx="973" cy="93" r="27"/>
	<path class="st1" d="M973,76c9.4,0,17,7.6,17,17s-7.6,17-17,17s-17-7.6-17-17S963.6,76,973,76 M973,56c-20.4,0-37,16.6-37,37
		s16.6,37,37,37s37-16.6,37-37S993.4,56,973,56L973,56z"/>
</g>
<g>
	<circle class="st1" cx="393" cy="674" r="27"/>
	<path class="st1" d="M393,657c9.4,0,17,7.6,17,17s-7.6,17-17,17s-17-7.6-17-17S383.6,657,393,657 M393,637c-20.4,0-37,16.6-37,37
		s16.6,37,37,37s37-16.6,37-37S413.4,637,393,637L393,637z"/>
</g>
<g>
	<circle class="st1" cx="973" cy="675" r="27"/>
	<path class="st1" d="M973,658c9.4,0,17,7.6,17,17s-7.6,17-17,17s-17-7.6-17-17S963.6,658,973,658 M973,638c-20.4,0-37,16.6-37,37
		s16.6,37,37,37s37-16.6,37-37S993.4,638,973,638L973,638z"/>
</g>
<g>
	<circle class="st1" cx="683" cy="383" r="27"/>
</g>
<g>
	<circle cx="393" cy="93" r="27"/>
</g>
<g>
	<circle cx="973" cy="93" r="27"/>
</g>
<g>
	<circle cx="393" cy="674" r="27"/>
</g>
<g>
	<circle cx="973" cy="675" r="27"/>
</g>
</svg>
