<?xml version="1.0" encoding="utf-8"?>
<!-- Generator: Adobe Illustrator 24.1.3, SVG Export Plug-In . SVG Version: 6.00 Build 0)  -->
<svg version="1.1" id="Layer_1" xmlns="http://www.w3.org/2000/svg" xmlns:xlink="http://www.w3.org/1999/xlink" x="0px" y="0px"
	 viewBox="0 0 1366 326" style="enable-background:new 0 0 1366 326;" xml:space="preserve">
<style type="text/css">
	.st0{fill:none;stroke:#000000;stroke-miterlimit:10;}
	.st1{fill:#FFE4BF;stroke:#000000;stroke-miterlimit:10;}
	.st2{fill:#FCFF35;}
	.st3{fill:#202020;}
	.st4{fill:#947D00;}
	.st5{fill:#5F4600;}
	.st6{stroke:#000000;stroke-miterlimit:10;}
	.st7{fill:none;stroke:#FFFFFF;stroke-width:3;stroke-linecap:round;stroke-miterlimit:10;}
	.st8{fill:#5F4600;stroke:#000000;stroke-width:7;stroke-miterlimit:10;}
	.st9{fill:#969696;}
</style>
<path class="st0" d="M-131.3,202.5"/>
<g>
	<path class="st1" d="M784,106.9c37.9,12.8,63,35.2,63,60.6c0,39.8-61.4,72-137.3,72s-137.3-32.2-137.3-72c0-25.4,25.1-47.8,63-60.6
		"/>
	<g>
		<ellipse class="st2" cx="646.8" cy="152.3" rx="29.3" ry="24.8"/>
		<g>
			<g>
				<path class="st3" d="M676,152.3c-1.4,5-3.7,8.3-6.6,11.1c-2.8,2.8-6.1,5.2-10.9,7.3c-0.4,0.2-0.9,0.4-1.5,0.6
					c-0.6,0.2-1.3,0.4-2.1,0.7c-0.8,0.3-1.8,0.4-2.9,0.7c-1.1,0.1-2.5,0.4-4,0.4c-2.8,0.1-6.7-0.1-10.5-1.4
					c-3.9-1.2-7.7-3.5-10.4-6.3c-2.7-2.8-4.3-6-5-8.3c-0.2-0.6-0.3-1.1-0.4-1.6c-0.1-0.5-0.2-0.9-0.2-1.2c0-0.7-0.1-1.1-0.1-1.1
					s0-0.3,0-0.9c0-0.3,0-0.7,0.1-1.1c0-0.4,0-0.9,0.1-1.4c0.3-2.1,1.2-5,3.2-7.7c1.9-2.8,4.9-5.4,8.2-7.1c3.3-1.8,7-2.8,10.1-3.1
					c4-0.5,7.4-0.1,9.9,0.4c2.5,0.5,4.3,1.2,5.5,1.7c4.8,2.1,8.1,4.6,10.9,7.3C672.3,144,674.6,147.2,676,152.3
					c1.1-5,0.5-10-1.9-14.4c-2.3-4.4-6.4-8.4-12.5-11.2c-1.5-0.6-3.8-1.6-7-2.2c-3.2-0.7-7.4-1.1-12.4-0.5c-3.9,0.4-8.5,1.7-12.8,4
					c-4.4,2.2-8.3,5.7-11,9.6c-2.7,3.8-4.1,8-4.5,11c-0.2,0.8-0.2,1.4-0.2,2.1c0,0.6-0.1,1.1-0.1,1.6c0,0.8,0.1,1.3,0.1,1.3
					s0,0.6,0.1,1.6c0,0.5,0.2,1.1,0.3,1.8c0.1,0.7,0.3,1.5,0.5,2.4c0.9,3.5,3.2,8,6.9,11.7c3.7,3.7,8.6,6.7,13.6,8.2
					c4.9,1.6,9.8,1.9,13.3,1.8c1.9,0,3.6-0.3,5-0.5c1.4-0.3,2.7-0.5,3.7-0.9c1-0.3,1.9-0.6,2.7-0.9c0.7-0.3,1.3-0.6,1.9-0.8
					c6.2-2.8,10.2-6.8,12.5-11.2C676.5,162.3,677.1,157.3,676,152.3z"/>
			</g>
		</g>
	</g>
	<g>
		<ellipse class="st2" cx="777.3" cy="152.3" rx="29.3" ry="24.8"/>
		<g>
			<g>
				<path class="st3" d="M806.5,152.3c-1.4,5-3.7,8.3-6.6,11.1c-2.8,2.8-6.1,5.2-10.9,7.3c-0.4,0.2-0.9,0.4-1.5,0.6
					c-0.6,0.2-1.3,0.4-2.1,0.7c-0.8,0.3-1.8,0.4-2.9,0.7c-1.1,0.1-2.5,0.4-4,0.4c-2.8,0.1-6.7-0.1-10.5-1.4
					c-3.9-1.2-7.7-3.5-10.4-6.3c-2.7-2.8-4.3-6-5-8.3c-0.2-0.6-0.3-1.1-0.4-1.6c-0.1-0.5-0.2-0.9-0.2-1.2c0-0.7-0.1-1.1-0.1-1.1
					s0-0.3,0-0.9c0-0.3,0-0.7,0.1-1.1c0-0.4,0-0.9,0.1-1.4c0.3-2.1,1.2-5,3.2-7.7c1.9-2.8,4.9-5.4,8.2-7.1c3.3-1.8,7-2.8,10.1-3.1
					c4-0.5,7.4-0.1,9.9,0.4c2.5,0.5,4.3,1.2,5.5,1.7c4.8,2.1,8.1,4.6,10.9,7.3C802.8,144,805.1,147.2,806.5,152.3
					c1.1-5,0.5-10-1.9-14.4c-2.3-4.4-6.4-8.4-12.5-11.2c-1.5-0.6-3.8-1.6-7-2.2c-3.2-0.7-7.4-1.1-12.4-0.5c-3.9,0.4-8.5,1.7-12.8,4
					c-4.4,2.2-8.3,5.7-11,9.6c-2.7,3.8-4.1,8-4.5,11c-0.2,0.8-0.2,1.4-0.2,2.1c0,0.6-0.1,1.1-0.1,1.6c0,0.8,0.1,1.3,0.1,1.3
					s0,0.6,0.1,1.6c0,0.5,0.2,1.1,0.3,1.8c0.1,0.7,0.3,1.5,0.5,2.4c0.9,3.5,3.2,8,6.9,11.7c3.7,3.7,8.6,6.7,13.6,8.2
					c4.9,1.6,9.8,1.9,13.3,1.8c1.9,0,3.6-0.3,5-0.5c1.4-0.3,2.7-0.5,3.7-0.9c1-0.3,1.9-0.6,2.7-0.9c0.7-0.3,1.3-0.6,1.9-0.8
					c6.2-2.8,10.2-6.8,12.5-11.2C807,162.3,807.6,157.3,806.5,152.3z"/>
			</g>
		</g>
	</g>
	<g>
		<path class="st4" d="M735.7,161.2C766,104.5,851.5,82,892,10c-51,12-90,30-117,54c-42-12-84-12-126,0c-19.3-22.4-66.5-38.6-117-54
			c31.5,67.5,126,99,156.6,151.2C704.2,175.7,719.9,175.6,735.7,161.2z"/>
		<g>
			<g>
				<path class="st3" d="M735.7,161.2c1.8-1.9,3.4-3.6,5-5.2c0.8-0.8,1.6-1.6,2.3-2.4l1.1-1.2c0.4-0.4,0.8-0.8,1.2-1.2
					c1.6-1.5,3-3.2,4.7-4.9c0.8-0.9,1.7-1.8,2.6-2.8c0.9-0.9,1.9-2,2.8-3c1-1.2,2.7-2.8,4.8-5c1-1,2.2-2.1,3.5-3.3l0.8-0.8
					c0.5-0.5,1-0.9,1.5-1.4c1-0.9,2.1-1.9,3.1-2.8c2.1-1.8,4.3-3.7,6.6-5.6c4.5-3.7,9.3-7.4,14.3-11.1C809.9,95.9,832.8,80.9,854,62
					c10.6-9.4,20.6-19.9,29.3-31.5l3.2-4.4c1.1-1.5,2-3,3-4.5l0.7-1.1l0.7-1c0.2-0.4,0.5-0.7,0.7-1.1l2.7-4.5l5.4-9.1l0.3-0.6
					c0.1-0.1,0-0.1-0.1-0.1l-0.3,0.1l-1.3,0.3l-2.5,0.6l-5.1,1.2c-3.2,0.8-6.4,1.6-9.6,2.3c-3.4,0.9-6.9,1.8-10.3,2.8
					c-13.6,3.9-27,8.5-39.6,13.8c-12.7,5.3-24.6,11.5-35.6,18.4c-5.4,3.5-10.7,7.1-15.5,11c-1.2,1-2.4,1.9-3.6,2.9
					c-0.6,0.5-1.2,1-1.7,1.5l-0.7,0.6l0,0c0,0,0,0,0,0l0,0l-0.5-0.1l-1.1-0.3c-1.4-0.4-2.8-0.8-4.3-1.1c-11.3-2.8-22.2-4.7-32.2-5.8
					c-20.1-2.1-36.7-1.2-48.2,0c-2.9,0.4-5.4,0.7-7.6,1c-2.2,0.4-4.1,0.6-5.6,0.9c-3,0.5-4.6,0.8-4.6,0.8s-1.6,0.3-4.6,0.9
					c-1.5,0.3-3.3,0.7-5.5,1.2c-1.1,0.3-2.3,0.5-3.5,0.8c-1.2,0.3-2.6,0.7-3.9,1c-0.7,0.2-1.4,0.4-2.1,0.6l-0.1,0l0,0l0,0l0,0l0,0
					l0,0c-0.6-0.6-1.2-1.3-1.8-1.9c-2.6-2.5-5.6-5.1-8.9-7.5c-6.7-4.9-14.7-9.6-23.8-14c-18.1-8.8-40.3-16.7-64.6-24.4
					c-3.2-1-6.5-2-9.8-3.1c-3-0.9-6-1.8-9-2.7c-1.5-0.5-3-0.9-4.5-1.4L525.6,4c-0.4-0.1-0.8-0.3-1.1-0.3l0.5,1.1
					c1.5,2.9,2.9,5.8,4.4,8.7c0.7,1.4,1.5,2.9,2.2,4.4c0.7,1.1,1.3,2.3,2,3.4c1.7,3,3.6,5.9,5.5,8.8c4,5.7,8.4,11.2,13.1,16.5
					c4.8,5.2,9.8,10.3,15,15.1c21.1,19.3,45.2,35.4,67.5,51.9c5.6,4.1,11.1,8.3,16.3,12.6c5.2,4.3,10.3,8.7,15,13.2
					c4.7,4.6,9,9.3,12.9,14.3c1.8,2.5,3.7,5,5.2,7.6l0.6,1l0.5,0.7c0.2,0.3,0.4,0.7,0.7,0.9c0.7,0.6,1.4,1.2,2.1,1.8l1,0.8
					c0.3,0.3,0.7,0.5,1,0.8l1.4,1.1c3.5,2.5,7,4.4,10.3,5.5c0.8,0.3,1.6,0.5,2.3,0.7c0.7,0.2,1.4,0.4,2.1,0.5
					c1.3,0.2,2.5,0.5,3.4,0.5c0.9,0,1.7,0.1,2.5,0.1c0.8,0,1.6-0.1,2.4-0.2c0.4,0,0.8-0.1,1.1-0.1c0.4-0.1,0.7-0.2,1.1-0.2
					c0.7-0.2,1.4-0.3,2.1-0.5c1.3-0.5,2.6-0.9,3.7-1.5c0.6-0.3,1.1-0.6,1.7-0.9c0.6-0.3,1.1-0.6,1.6-1
					C729.8,168.8,732.8,165.4,735.7,161.2c-4.6,2.4-8.5,4-12.4,5.2c-0.5,0.2-1,0.3-1.5,0.4c-0.5,0.1-1,0.3-1.5,0.4
					c-1,0.3-2.1,0.4-3.1,0.6c-0.5,0.1-1.1,0.1-1.6,0.2c-0.3,0-0.6,0.1-0.8,0.1c-0.3,0-0.6,0-0.9,0c-0.6,0-1.2,0-1.8,0
					c-0.6-0.1-1.2-0.1-1.9-0.1c-1.4-0.1-3.4-0.5-5.9-1.3c-2.5-0.9-5.3-2.4-8.3-4.5l-1.2-0.9c-0.3-0.2-0.6-0.4-0.9-0.7l-0.8-0.7
					l-1.5-1.3l0,0c0.1,0.2-0.1-0.1-0.2-0.3l-0.7-1.1c-1.7-2.9-3.7-5.5-5.7-8.3c-4.1-5.3-8.7-10.3-13.6-15.1
					c-4.9-4.8-10.1-9.3-15.5-13.7c-5.4-4.4-10.9-8.6-16.6-12.8c-22.5-16.7-46.4-32.7-66.9-51.4c-5.1-4.7-9.9-9.6-14.5-14.6
					c-4.5-5-8.7-10.3-12.5-15.7c-1.8-2.8-3.7-5.5-5.2-8.3l-0.5-0.9l0,0l0,0c3,1,6,1.9,8.9,2.8c24.1,7.7,46,15.5,63.5,24
					c8.8,4.3,16.4,8.7,22.6,13.2c3.1,2.2,5.8,4.6,8.1,6.8c0.6,0.6,1.1,1.2,1.6,1.7c0.6,0.6,1.2,1.2,1.7,1.8c0.3,0.3,0.6,0.6,0.8,0.9
					l0.4,0.4l0.2,0.2c0.1,0.1,0.2,0,0.3,0c2.3-0.6,4.4-1.2,6.4-1.7c1.3-0.4,2.6-0.7,3.8-1c1.2-0.3,2.3-0.5,3.4-0.8
					c2.1-0.5,3.9-0.9,5.3-1.2c2.9-0.6,4.5-0.9,4.5-0.9s1.5-0.3,4.5-0.8c1.5-0.2,3.3-0.5,5.4-0.9c2.1-0.3,4.6-0.6,7.4-0.9
					c11.1-1.2,27.1-2,46.5,0c9.7,1,20.1,2.8,31.1,5.6c1.4,0.4,2.7,0.7,4.1,1.1c0.9,0.2,1.8,0.5,2.7,0.7c1.4,0.2,3,1.3,4-0.2
					c1.4-1.2,2.9-2.5,4.4-3.7c1.1-1,2.3-1.9,3.4-2.8c4.6-3.7,9.7-7.1,14.9-10.5c10.5-6.6,22.1-12.6,34.4-17.8
					c12.3-5.2,25.3-9.7,38.7-13.5c3.3-1,6.7-1.8,10.1-2.8l0.7-0.2l0,0l0,0l-0.8,1.2c-1,1.4-1.9,2.9-2.9,4.3l-3.1,4.2
					c-8.3,11.1-18,21.2-28.3,30.4c-20.6,18.4-43.3,33.2-63.4,48.2c-5,3.8-9.9,7.5-14.6,11.3c-2.3,1.9-4.6,3.8-6.8,5.7
					c-1.1,1-2.2,1.9-3.3,2.9c-0.5,0.5-1.1,1-1.6,1.5l-0.8,0.8c-1.3,1.3-2.6,2.4-3.6,3.5c-2.1,2.2-3.9,4-5,5.2c-1,1.1-2,2.2-2.9,3.3
					c-0.9,1.1-1.6,2.2-2.4,3.2c-1.5,2-2.7,4.1-3.8,6.2c-0.3,0.5-0.5,1-0.8,1.5l-0.7,1.6c-0.4,1.1-0.9,2.1-1.3,3.2
					C737,156.4,736.4,158.7,735.7,161.2z"/>
			</g>
		</g>
	</g>
	<g>
		<path class="st5" d="M820,86.5c45.6,27.4,55.3,58.8,63,86.7c27.1,98.9-61,146.3-171,145.8c-113.1-0.5-196.8-32.4-174.6-145.8
			c5.7-29.3,15.9-60.6,62.1-86.7L631,109c-121.6,60.6-36,126,78.8,130.5c141.8-9,181.7-77.4,78.8-130.5L820,86.5z"/>
		<g>
			<g>
				<path class="st3" d="M820,86.5c1.8,1.9,3.4,3.6,5,5.2c0.8,0.8,1.6,1.5,2.4,2.3c0.8,0.8,1.5,1.6,2.3,2.3c3.2,3,6.6,6.1,11,9.9
					c1.1,1.1,2.9,2.6,5,4.7c1,1.1,2.1,2.2,3.3,3.4l1.1,1.2c0.7,0.8,1.4,1.6,2.1,2.5c0.7,0.8,1.4,1.7,2.1,2.5c0.7,0.8,1.3,1.7,2,2.6
					c0.7,0.9,1.3,1.8,2,2.7c0.7,0.9,1.2,1.8,1.9,2.8c0.6,0.9,1.2,1.9,1.9,2.8c0.6,1,1.1,2,1.7,2.9c4.5,7.9,8.2,16.5,11.1,25.8
					c1.5,4.6,2.8,9.4,4.2,14.2c0.6,2.4,1.2,4.8,1.7,7.2c0.1,0.6,0.3,1.2,0.4,1.8l0.3,1.8c0.2,1.2,0.4,2.5,0.6,3.7
					c1.6,9.9,2.1,20.1,0.9,30.2c-1.2,10.1-4.1,20.2-8.9,29.4c-4.8,9.3-11.5,17.6-19.4,24.8c-7.9,7.2-17,13.3-26.7,18.3
					c-9.7,5-20,9-30.6,12.2c-21.2,6.4-43.5,9.6-65.5,10.8c-11,0.5-22,0.5-33,0.2c-10.9-0.3-21.7-0.9-32.3-2
					c-21.2-2.1-41.7-5.9-60.3-12.6c-9.3-3.3-18-7.4-26-12.3c-7.9-4.9-15-10.7-20.8-17.2c-5.8-6.5-10.5-13.6-13.7-21.1
					c-3.3-7.5-5.4-15.1-6.7-22.6c-2.4-15-1.7-29.1,0-41.4c0.1-1.5,0.4-3,0.7-4.5c0.3-1.5,0.5-2.9,0.7-4.4c0.4-2.9,1.1-5.6,1.6-8.2
					c0.6-2.6,1.1-5.1,1.8-7.5c0.3-1.2,0.6-2.3,0.9-3.4c0.3-1.1,0.7-2.2,1-3.2c2.6-8.4,5.5-14.5,7.6-18.6c1.1-2,2-3.5,2.6-4.6
					c0.3-0.5,0.5-0.9,0.7-1.1c0.2-0.3,0.2-0.4,0.2-0.4s0.3-0.5,1-1.5c0.3-0.5,0.7-1.1,1.2-1.8c0.2-0.4,0.5-0.8,0.8-1.2
					c0.3-0.4,0.6-0.8,1-1.3c0.7-0.9,1.5-1.9,2.3-3.1c0.4-0.6,0.9-1.1,1.4-1.7c0.5-0.6,1-1.2,1.6-1.8c1.1-1.3,2.3-2.6,3.7-4
					c0.7-0.7,1.4-1.4,2.1-2.1c0.7-0.7,1.4-1.5,2.3-2.2c1.6-1.4,3.4-2.9,5.2-4.5c1.9-1.5,3.9-3,6-4.6c2.2-1.5,4.5-3.1,6.9-4.7
					c1.2-0.8,2.5-1.5,3.8-2.3c1-0.6,1.9-1.2,2.9-1.7c7.2,5.1,15.3,10.9,24.2,17.3l0,0c-0.7,0.4-1.4,0.7-2.1,1.1c-1.8,1-3.6,2-5.4,3
					c-0.9,0.5-1.8,1-2.7,1.6c-0.9,0.6-1.8,1.1-2.7,1.7c-1.8,1.1-3.6,2.3-5.5,3.5c-1.8,1.2-3.6,2.5-5.4,3.8c-1.8,1.4-3.6,2.6-5.4,4.1
					c-3.6,2.8-7,5.9-10.3,9.4c-3.3,3.5-6.4,7.2-9.1,11.5c-2.6,4.3-4.9,9-6,14.3l-0.4,2c-0.1,0.7-0.2,1.3-0.3,2
					c-0.2,1.3-0.2,2.7-0.3,4.1c0,2.7,0.3,5.5,0.9,8.2c0.6,2.7,1.5,5.3,2.6,7.8c0.5,1.3,1.2,2.4,1.9,3.7c0.7,1.2,1.4,2.4,2.2,3.5
					c3.1,4.5,6.8,8.5,10.9,12c4.1,3.5,8.5,6.7,13.1,9.5c9.2,5.7,19.2,10.1,29.6,13.8c10.4,3.7,21.1,6.6,32,8.8
					c10.9,2.2,22.1,3.8,33.4,4.8l4.2,0.3l4.2,0.3c1.4,0.1,2.8,0.2,4.2,0.2l2.1,0.1c0.2,0,0.7,0,0.9,0l0.5,0l1.1-0.1
					c5.6-0.4,11.3-0.9,17-1.5c11.3-1.2,22.6-2.9,33.8-5.3c11.2-2.3,22.3-5.3,33-9.3c10.7-4,21.2-9,30.7-15.7
					c4.7-3.4,9.1-7.3,13-11.8c1.9-2.2,3.6-4.7,5.2-7.2c1.5-2.6,2.8-5.3,3.7-8.2c1-2.9,1.6-5.9,1.8-8.9c0.3-3,0.2-6.1-0.3-9
					c-0.5-2.9-1.2-5.8-2.2-8.6c-1-2.7-2.2-5.4-3.7-7.8c-2.8-5-6.2-9.4-10-13.4c-3.7-4-7.7-7.6-11.9-11c-4.1-3.3-8.4-6.4-12.7-9.2
					c-1.1-0.7-2.2-1.4-3.3-2.1c-1.1-0.7-2.2-1.4-3.3-2c-1.1-0.6-2.2-1.3-3.3-1.9c-0.7-0.4-1.5-0.8-2.2-1.2c-0.4-0.2-0.9-0.5-1.3-0.7
					c-0.1,0-0.1,0-0.1,0l0,0l0,0l0,0l0,0c0,0,0,0,0,0l0,0c0,0-0.2,0.2,0.5-0.4c1-0.7,1.8-1.3,2.4-1.8
					C808.6,99.4,813.3,94.3,820,86.5c-9.6,3.8-15.9,6.6-25.7,13.6c-2,1.4-4.9,3.5-8.6,6.1c-1.2,0.9-2.5,1.8-3.9,2.8l-0.5,0.4
					c-0.1,0.1-0.2,0.1-0.2,0.2l0.3,0.1c0.4,0.2,0.7,0.4,1.1,0.6c0.8,0.4,1.5,0.8,2.3,1.2c1.6,0.8,3.2,1.7,4.9,2.6
					c0.4,0.2,0.8,0.4,1.3,0.7l0.6,0.3l0.6,0.3c0.4,0.2,0.8,0.5,1.3,0.7c0.7,0.4,1.4,0.8,2.1,1.2c1.1,0.6,2.1,1.2,3.2,1.9
					c1.1,0.6,2.1,1.3,3.1,1.9c1,0.7,2.1,1.3,3.1,2c4.2,2.7,8.2,5.6,12.1,8.7c3.9,3.1,7.6,6.5,11,10.2c3.4,3.7,6.5,7.7,8.9,12
					c1.2,2.1,2.3,4.4,3.1,6.7c0.9,2.3,1.4,4.6,1.8,7c0.4,2.4,0.4,4.8,0.2,7.2c-0.2,2.4-0.7,4.8-1.5,7.1c-0.8,2.3-1.8,4.5-3.1,6.7
					c-1.3,2.1-2.7,4.2-4.4,6.1c-3.3,3.9-7.3,7.4-11.6,10.5c-8.6,6.2-18.5,10.9-28.8,14.7c-10.3,3.8-21,6.7-31.9,9
					c-10.9,2.3-21.9,3.9-33,5.1c-5.5,0.6-11.1,1.1-16.6,1.4l-1,0.1l-0.5,0c-0.1,0,0,0-0.1,0l-2.1-0.1c-1.4-0.1-2.8-0.1-4.1-0.2
					l-4.1-0.3l-4.1-0.3c-11-1-21.9-2.5-32.5-4.7c-10.6-2.1-21-5-31-8.5c-9.9-3.5-19.5-7.8-28.1-13.1c-4.3-2.6-8.4-5.6-12.1-8.8
					c-3.7-3.2-7-6.7-9.6-10.5c-0.7-0.9-1.2-1.9-1.9-2.9c-0.5-1-1.1-2-1.5-3c-1-2-1.6-4.1-2.1-6.3c-0.5-2.1-0.7-4.3-0.7-6.4
					c0.1-1.1,0-2.1,0.2-3.2c0.1-0.5,0.1-1.1,0.2-1.6l0.3-1.6c0.9-4.2,2.8-8.2,5-11.9c2.3-3.7,5.1-7.1,8.1-10.2c3-3.1,6.2-6,9.6-8.7
					c1.6-1.4,3.4-2.6,5.1-3.9c1.7-1.2,3.4-2.4,5.2-3.6c1.7-1.1,3.5-2.3,5.2-3.3c0.9-0.5,1.7-1.1,2.6-1.6c0.9-0.5,1.8-1,2.6-1.5
					c1.7-1,3.5-2,5.2-2.9l1.3-0.7l0.6-0.4l1.3-0.7c1.8-0.9,3.5-1.8,5.3-2.7c0.9-0.4,1.7-0.9,2.6-1.3l1.3-0.7l0.7-0.3
					c0-0.1,0.4-0.1,0.2-0.2l-0.3-0.2c-1.6-1.1-3.2-2.3-4.7-3.4c-2.5-1.8-4.9-3.5-7.3-5.2c-3.1-2.2-6-4.3-8.9-6.4
					c-2.9-2.1-5.7-4.1-8.5-6c-1.4-1-2.7-1.9-4.1-2.9c-1.1-0.8-2.1-1.5-3.2-2.3l-1-0.7L600,82l-0.2-0.2c-0.1-0.1-0.2,0.1-0.3,0.1
					c-0.7,0.4-1.4,0.8-2,1.2c-1.7,1-3.4,2.1-5.1,3.1c-1.3,0.8-2.7,1.6-3.9,2.4c-2.5,1.7-4.9,3.3-7.2,4.9c-2.2,1.7-4.3,3.4-6.4,4.9
					c-2,1.7-3.8,3.3-5.5,4.8c-0.9,0.7-1.7,1.6-2.5,2.3c-0.8,0.8-1.5,1.5-2.3,2.3c-1.5,1.4-2.8,2.9-3.9,4.3c-0.6,0.7-1.2,1.3-1.7,2
					c-0.6,0.6-1.1,1.2-1.5,1.9c-0.9,1.2-1.8,2.3-2.5,3.3c-0.4,0.5-0.7,1-1.1,1.4c-0.3,0.4-0.6,0.9-0.9,1.3c-0.5,0.8-1,1.5-1.3,2
					c-0.7,1.1-1.1,1.6-1.1,1.6s-0.1,0.1-0.3,0.4c-0.2,0.3-0.4,0.7-0.8,1.2c-0.6,1.1-1.6,2.8-2.8,4.9c-2.3,4.4-5.4,11-8.2,19.9
					c-0.3,1.1-0.7,2.2-1,3.4c-0.3,1.2-0.6,2.4-1,3.6c-0.7,2.5-1.2,5.1-1.9,7.8c-0.5,2.7-1.2,5.5-1.6,8.5c-0.3,1.5-0.5,3-0.8,4.5
					c-0.3,1.5-0.6,3.1-0.7,4.7c-1.7,12.8-2.5,27.6,0,43.7c1.4,8,3.6,16.3,7.3,24.5c3.6,8.2,8.7,16,15,23.1
					c6.4,7.1,14,13.3,22.5,18.6c8.5,5.3,17.7,9.5,27.4,13c19.4,7,40.5,10.9,62.2,13c10.8,1.1,21.8,1.8,32.9,2
					c11.1,0.3,22.3,0.3,33.6-0.3c22.5-1.2,45.3-4.5,67.4-11.1c11-3.3,21.8-7.5,32-12.8c10.2-5.3,19.9-11.7,28.4-19.5
					c8.5-7.7,15.9-16.8,21.1-26.9c5.3-10.1,8.5-21.1,9.8-32.1c1.3-11,0.7-22-1-32.4c-0.2-1.3-0.5-2.6-0.7-3.9l-0.3-1.9
					c-0.1-0.6-0.3-1.3-0.4-1.9c-0.6-2.5-1.2-5.1-1.8-7.6c-1.4-4.9-2.7-9.8-4.3-14.6c-3-9.6-6.9-18.9-11.8-27.3
					c-0.6-1.1-1.2-2.1-1.8-3.1c-0.7-1-1.3-2-2-3c-0.7-1-1.3-2-2-3c-0.7-1-1.4-1.9-2.1-2.9c-0.7-0.9-1.4-1.9-2.2-2.8
					c-0.8-0.9-1.5-1.8-2.3-2.7c-0.8-0.9-1.5-1.8-2.3-2.6c-0.4-0.4-0.8-0.8-1.2-1.3c-1.3-1.3-2.5-2.5-3.6-3.7
					c-2.2-2.2-4.1-3.8-5.4-4.9c-4.7-4-8.7-6.7-12.8-8.8c-1-0.5-2-1-3-1.5c-1-0.5-2.1-0.9-3.2-1.3C824.7,88.1,822.4,87.3,820,86.5z"
					/>
			</g>
		</g>
	</g>
	<circle class="st6" cx="646.8" cy="151.8" r="15.8"/>
	<circle class="st6" cx="777.3" cy="151.8" r="15.8"/>
	<path class="st7" d="M635.5,154c0-6.8,5.5-12.4,12.4-12.4"/>
	<path class="st7" d="M766,154c0-6.8,5.5-12.4,12.4-12.4"/>
	<path class="st0" d="M608.5,77.5"/>
	<path class="st0" d="M709.8,95.5"/>
	<path class="st8" d="M645.6,61.2c42.1-14.2,86.6-12.9,132.9,0l-39.9,36.7c-15,13.8-38.1,13.8-53.1,0L645.6,61.2z"/>
	<g>
		<path class="st9" d="M717.5,210.3c0,21.1-3,38.3-6.8,38.3s-6.8-17.1-6.8-38.3s2.4-28.5,6.1-28.5
			C713.9,181.8,717.5,189.1,717.5,210.3z"/>
		<g>
			<path d="M715.5,210.3c0,8-0.3,16-1.6,23.9c-0.2,1.1-1.1,9.9-3.2,9.9c-2.1,0-3.1-9.4-3.3-10.5c-1.1-7.7-1.5-15.5-1.5-23.2
				c0-6.2-0.1-12.5,1.1-18.6c0.3-1.6,0.8-5.3,3-5.4C716.4,186,715.5,207.5,715.5,210.3c0,1.2,0.2,4.5,2,4.5c1.7,0,2-3.5,2-4.5
				c0-7.1-0.3-14.3-1.7-21.2c-0.7-3.4-1.8-7.9-4.5-10.3c-5.5-5-8.7,4.3-9.5,8.4c-3,14.5-2.2,30.6-0.5,45.2
				c0.3,2.8,2.7,24.8,9.3,19.9c3.5-2.6,4.3-9.9,4.9-13.7c1.6-9.3,2-18.8,2-28.2c0-1.2-0.2-4.5-2-4.5
				C715.8,205.8,715.5,209.2,715.5,210.3z"/>
		</g>
	</g>
</g>
</svg>
