<?xml version="1.0" encoding="utf-8"?>
<!-- Generator: Adobe Illustrator 24.1.3, SVG Export Plug-In . SVG Version: 6.00 Build 0)  -->
<svg version="1.1" id="Layer_1" xmlns="http://www.w3.org/2000/svg" xmlns:xlink="http://www.w3.org/1999/xlink" x="0px" y="0px"
	 viewBox="0 0 1366 768" style="enable-background:new 0 0 1366 768;" xml:space="preserve">
<style type="text/css">
	.st0{fill:#DF0006;}
	.st1{fill:#8A2600;}
	.st2{fill:#7F4000;}
	.st3{fill:#1F0500;}
	.st4{fill:#DF5706;}
	.st5{fill:#E90041;}
	.st6{fill:#FFFFFF;stroke:#000000;stroke-miterlimit:10;}
</style>
<g>
	<ellipse cx="637.1" cy="668.5" rx="290.6" ry="93.5"/>
	<g>
		<path class="st0" d="M369.9,274.5c7.5-19.2,19.4-42.3,38.4-65.9c50.9-63.2,121.2-90.5,154.8-101.2"/>
		<path class="st0" d="M380.4,244c7.5-19.2,19.4-42.3,38.4-65.9C469.6,115,540,87.6,573.6,76.9"/>
		<path class="st0" d="M355.3,236.3c7.5-19.2,19.4-42.3,38.4-65.9c50.9-63.2,121.2-90.5,154.8-101.2"/>
		<path class="st0" d="M324.1,221c8-17.6,20.6-38.8,40.8-60.4c54.1-57.9,129.1-82.9,164.8-92.7"/>
		
			<ellipse transform="matrix(0.786 -0.6183 0.6183 0.786 -64.1857 355.4573)" class="st0" cx="481.3" cy="270.4" rx="100.2" ry="159.1"/>
		<path class="st1" d="M525,157.2c10.4,7.9,20.8,16.9,30.9,27.2C622,252,638.4,337.6,643.1,386"/>
		
			<ellipse transform="matrix(0.8894 -0.4571 0.4571 0.8894 -160.6131 441.9492)" class="st1" cx="833.1" cy="552.9" rx="138" ry="65.4"/>
		<path class="st2" d="M794.9,457.2c50-1.9,116.6,2.7,192.4,28.4c113,38.2,196.9,106.3,248,155.6"/>
		<path class="st2" d="M961,497.9c48.3,1.9,106.6,8,171.4,23.2c76.4,17.9,139.7,43.2,188.3,66.8"/>
		
			<ellipse transform="matrix(0.4421 -0.897 0.897 0.4421 -103.0144 762.6971)" class="st3" cx="561.6" cy="464.2" rx="194.3" ry="274.1"/>
		<path class="st0" d="M309.3,277.8c-8.1,25.1-31.6,108.4,6.3,198.5c51.5,122.4,174.1,157.7,198.5,164.7
			c145.4,41.8,265.2-36.5,283-48.6"/>
		<path d="M338.2,197.6c-29.3,8.2-35,68.6-40.1,122.5c-4.2,43.9-6.3,66.5,4.2,71.8c25.1,12.7,126.3-69.8,105.6-139.4
			C398.3,219.9,362.1,190.9,338.2,197.6z"/>
		<path class="st0" d="M352.7,277.8"/>
		<polygon class="st4" points="322.7,212.7 256.5,248.1 332.9,248.3 		"/>
		<polygon class="st4" points="332.2,253.3 257.2,257 326.1,289.9 		"/>
		<path class="st0" d="M326.3,206.7c12.8-19,28-39.4,46.1-60c30.1-34.3,60-60,85.9-79.1"/>
		<path class="st0" d="M455,67.5c-1.2,3.4-2.8,7.1-4.7,10.9c-5.4,10.9-12.2,19.4-12.5,19.1c-0.5-0.4,9-20.7,26.6-35.5
			c5.2-4.3,9.9-7.2,13.3-9.1"/>
		<path class="st0" d="M430.4,135.4c8.5-21.7,22.4-51.3,43.8-79.8c18-23.9,35.6-39.5,49.3-49.5"/>
		<path class="st0" d="M477.9,88.6c4.8-8.2,15.5-24.3,32.9-33c12-6.1,22.6-6.2,29.2-5.5"/>
		
			<ellipse transform="matrix(0.786 -0.6183 0.6183 0.786 -102.7713 405.0457)" class="st0" cx="533.6" cy="351" rx="93.9" ry="159.1"/>
		<path class="st0" d="M488.9,107.9c6.4-10,16-22.6,29.2-33c23.3-18.3,45.2-19.8,56.6-19.3"/>
		<path class="st0" d="M503.5,127.2c5.2-8.1,15.4-21.9,31-30.3c21.5-11.5,40.2-5.7,47.5-2.8"/>
		<path class="st0" d="M505.3,143.7c3.5-5,11.5-15.1,23.7-19.3c16-5.5,28.8,2.6,32.9,5.5"/>
		<path class="st0" d="M486.3,171c3.5-5,11.5-15.1,23.7-19.3c16-5.5,28.8,2.6,32.9,5.5"/>
		
			<ellipse transform="matrix(0.5677 -0.8233 0.8233 0.5677 -68.6328 766.5296)" class="st0" cx="695.5" cy="448.6" rx="93.9" ry="220.5"/>
		<path class="st0" d="M992.9,530c-20.3-15.8-46.4-33.5-78.5-49.4c-40.6-20.2-78.1-31.4-107.5-37.8"/>
		<path class="st0" d="M722.8,361.5c22.7,1,78.6,6.9,134.5,50.9c52.4,41.2,76.8,93.9,86.2,117.5"/>
		<path class="st5" d="M833.2,592.1c17-0.4,41.7-2.6,69.7-11.6c36.6-11.7,84.7-36.9,81.4-52.3c-1.2-5.4-9.2-11.7-40.7-14.5"/>
		<path class="st5" d="M898.4,463.6c9.3-1.9,23.8-3.5,40.7,0c32,6.6,51.4,27.1,58.1,34.9"/>
		<path class="st5" d="M971.5,484.9c48.3,1.9,106.6,8,171.4,23.2c76.4,17.9,139.7,43.2,188.3,66.8"/>
		<path class="st2" d="M950.5,554.6c2.2,7.4,52.7,2.2,121.8,8.5c111.1,10.2,169.2,41.1,172.7,36.2c5.1-7.2-111-82.7-226.3-68.1
			C984.2,535.6,948.6,548.2,950.5,554.6z"/>
		<g>
			<ellipse class="st6" cx="416.5" cy="235.3" rx="35.3" ry="30.8"/>
			<path d="M407.7,212.4c-12.2,0-22.2,9.4-22.2,21s9.9,21,22.2,21s22.2-9.4,22.2-21S419.9,212.4,407.7,212.4z M397.4,226.7
				c-2.9,0-2.9-4.3,0-4.3C400.4,222.3,400.3,226.7,397.4,226.7z"/>
		</g>
		<path class="st0" d="M980.3,471.1c9.2-2.1,28.8-5.3,53.9,1.2c17.4,4.5,30.7,11.9,38.7,17.1"/>
		<path class="st0" d="M986.7,491.9c11.8-2.2,28.7-3.9,49.3-1.4c36.2,4.3,64.3,18.9,78.4,27.3"/>
		<path class="st0" d="M997.6,515.3c9.6-1.8,27.7-3.8,50.5,1.7c31.3,7.6,52.5,24.8,60.6,32"/>
		<path class="st0" d="M993.6,527.7c6.2-0.9,20.1-2,37.1,3.9c22.1,7.7,35.1,22.3,39.1,27.1"/>
		<path class="st5" d="M1064.2,513.6c23.4,1.9,51.7,8.1,83.1,23.3c37,18,67.7,43.4,91.3,67"/>
		<path class="st1" d="M478.1,168.9"/>
		<path class="st0" d="M498.5,166.6c9.5-1.8,26.5-3.9,43.3,1.7c23.1,7.7,31.7,25.3,34.7,32.6"/>
		<path class="st0" d="M494.5,206.6c5.3-3,16.8-8.7,29.7-7.2c16.8,2,24.8,14.8,27.3,19.1"/>
		<path class="st0" d="M415.7,152.5c0.1-9.5,1.5-28.8,12.2-45c7.5-11.2,16.6-16.6,22.7-19.3"/>
	</g>
</g>
</svg>
